<?xml version="1.0" standalone="no"?>
<!DOCTYPE svg PUBLIC "-//W3C//DTD SVG 20010904//EN"
 "http://www.w3.org/TR/2001/REC-SVG-20010904/DTD/svg10.dtd">
<svg version="1.0" xmlns="http://www.w3.org/2000/svg"
 width="3000.000000pt" height="2000.000000pt" viewBox="0 0 3000.000000 2000.000000"
 preserveAspectRatio="xMidYMid meet">

<g transform="translate(0.000000,2000.000000) scale(0.100000,-0.100000)"
fill="#000000" stroke="none">
<path d="M6150 13779 c-844 -93 -1613 -535 -2118 -1218 -150 -203 -309 -501
-396 -744 -57 -158 -109 -360 -137 -532 -30 -188 -37 -549 -15 -743 65 -556
274 -1059 626 -1502 107 -134 335 -363 469 -469 249 -197 584 -385 866 -487
170 -61 393 -116 585 -145 137 -21 189 -24 445 -23 301 0 414 10 640 55 420
84 803 262 1130 526 106 85 319 296 405 400 366 444 571 1126 546 1818 -6 165
-16 286 -32 358 l-6 27 -1349 0 -1349 0 0 -400 0 -400 961 0 961 0 -7 -42
c-62 -407 -197 -715 -415 -942 -328 -342 -724 -537 -1215 -597 -144 -17 -456
-15 -590 5 -711 106 -1296 533 -1606 1172 -145 300 -213 603 -213 954 0 211
15 344 61 530 162 665 632 1212 1258 1463 268 107 493 150 795 151 200 0 311
-11 489 -51 311 -68 635 -231 880 -443 l83 -72 280 278 279 279 -62 58 c-211
200 -533 410 -809 528 -198 84 -448 154 -685 191 -149 23 -606 34 -755 17z"/>
<path d="M11292 11688 c-572 -32 -1116 -338 -1431 -803 -89 -131 -139 -225
-194 -365 -139 -350 -171 -752 -91 -1133 163 -774 787 -1350 1583 -1461 145
-21 411 -21 550 0 544 79 1008 365 1302 803 163 241 261 502 304 801 17 122
20 388 5 510 -89 712 -537 1285 -1200 1533 -253 95 -527 133 -828 115z m354
-757 c204 -42 366 -132 525 -290 155 -155 241 -306 295 -518 158 -623 -158
-1249 -721 -1426 -243 -76 -525 -58 -749 48 -391 185 -636 590 -636 1052 0
453 221 843 586 1035 92 48 220 92 308 107 96 16 295 12 392 -8z"/>
<path d="M24672 11689 c-375 -32 -726 -181 -1009 -429 -622 -543 -805 -1550
-423 -2325 99 -201 217 -362 376 -515 297 -285 657 -450 1088 -501 126 -15
431 -6 551 15 467 84 882 337 1173 715 l73 94 -323 215 -322 215 -16 -24 c-36
-55 -153 -188 -206 -234 -205 -177 -398 -252 -669 -262 -288 -10 -496 54 -691
215 -114 94 -296 342 -265 361 7 5 576 241 1264 526 689 285 1254 520 1256
522 8 6 -110 294 -167 408 -266 537 -721 898 -1237 985 -138 23 -320 31 -453
19z m413 -749 c134 -33 256 -100 345 -189 76 -74 141 -175 123 -191 -9 -8
-1645 -689 -1677 -698 -18 -5 -19 0 -13 99 17 291 122 526 320 716 155 148
330 240 532 279 93 18 266 11 370 -16z"/>
<path d="M19290 11670 c-373 -66 -701 -240 -981 -520 -358 -358 -559 -844
-559 -1355 0 -513 199 -989 564 -1350 339 -335 737 -514 1186 -532 261 -10
457 30 676 137 133 65 250 147 333 234 85 91 86 89 84 -167 -4 -318 -36 -494
-123 -669 -54 -108 -92 -161 -169 -238 -155 -154 -349 -237 -608 -259 -319
-28 -580 61 -802 273 -91 88 -173 196 -229 304 -24 45 -46 82 -49 82 -4 0
-165 -66 -359 -146 l-352 -146 26 -57 c80 -175 197 -344 347 -499 272 -283
570 -447 950 -522 139 -28 423 -38 587 -21 683 71 1173 432 1412 1040 76 193
126 439 146 716 6 84 10 832 10 1873 l0 1732 -390 0 -390 0 0 -155 c0 -188 -2
-189 -109 -85 -77 74 -197 158 -300 210 -91 45 -281 106 -390 124 -131 22
-374 20 -511 -4z m516 -731 c80 -12 172 -43 259 -86 197 -99 372 -284 470
-496 130 -283 153 -656 60 -962 -107 -351 -357 -609 -692 -712 -82 -25 -100
-27 -268 -27 -215 0 -279 14 -450 98 -411 203 -647 653 -604 1151 27 309 142
559 349 759 243 234 541 328 876 275z"/>
</g>
</svg>
